<?xml version="1.0" encoding="utf-8"?>
<!-- Generator: Adobe Illustrator 22.1.0, SVG Export Plug-In . SVG Version: 6.00 Build 0)  -->
<svg version="1.1" id="Layer_1" xmlns="http://www.w3.org/2000/svg" xmlns:xlink="http://www.w3.org/1999/xlink" x="0px" y="0px"
	 viewBox="0 0 116 22" style="enable-background:new 0 0 116 22;" xml:space="preserve">
<style type="text/css">
	.st0{fill:#272727;}
</style>
<g>
	<g>
		<polygon class="st0" points="109.9,1.4 109.9,13.6 101.3,1.5 101.3,1.4 101.3,1.4 97,1.4 97,13.9 97,20.8 101.3,20.8 101.3,8.7 
			109.9,20.8 109.9,20.8 109.9,20.8 111,20.8 114.2,20.8 114.2,1.4 		"/>
		<path class="st0" d="M7.7,5.3C7.3,5.6,7.1,6.1,7.1,6.7s0.3,1,0.8,1.3c0.5,0.3,1.7,0.7,3.5,1.2s3.3,1.1,4.3,2c1,0.9,1.5,2.2,1.5,4
			c0,1.7-0.7,3.1-2,4.2c-1.3,1.1-3,1.6-5.1,1.6c-3.1,0-5.8-1.1-8.3-3.4l2.6-3.2c2.1,1.8,4,2.7,5.8,2.7c0.8,0,1.4-0.2,1.9-0.5
			c0.5-0.3,0.7-0.8,0.7-1.4s-0.2-1-0.7-1.4c-0.5-0.3-1.4-0.7-2.8-1c-2.3-0.5-3.9-1.2-4.9-2.1c-1-0.9-1.6-2.2-1.6-4s0.7-3.3,2-4.2
			c1.3-1,3-1.5,4.9-1.5c1.3,0,2.6,0.2,3.9,0.7c1.3,0.4,2.4,1.1,3.4,1.9l-2.2,3.2c-1.7-1.3-3.4-1.9-5.2-1.9C8.7,4.8,8.1,5,7.7,5.3z"
			/>
		<path class="st0" d="M58.1,1.4v3.8h-9.6v4h8.7V13h-8.7v4h9.6v3.8H44.1V1.4H58.1z"/>
		<path class="st0" d="M68.9,13.8l4.4-12.3H78l-7.3,19.3h-3.7L59.9,1.4h4.7L68.9,13.8z"/>
		<path class="st0" d="M94,1.4v3.8h-9.6v4h8.7V13h-8.7v4H94v3.8H80.1V1.4H94z"/>
		<polygon class="st0" points="38,1.5 35.2,12.4 32.7,1.5 28.1,1.5 25.8,12.3 23,1.5 18.2,1.5 23.6,20.7 27.8,20.7 30.4,9.8 
			33,20.7 37.3,20.7 42.6,1.5 		"/>
	</g>
</g>
</svg>
