<?xml version="1.0" encoding="utf-8"?>
<!-- Generator: Adobe Illustrator 22.1.0, SVG Export Plug-In . SVG Version: 6.00 Build 0)  -->
<svg version="1.1" id="Layer_1" xmlns="http://www.w3.org/2000/svg" xmlns:xlink="http://www.w3.org/1999/xlink" x="0px" y="0px"
	 viewBox="0 0 520 267" style="enable-background:new 0 0 520 267;" xml:space="preserve">
<style type="text/css">
	.st0{fill:#3A3938;}
	.st1{fill:#154394;}
</style>
<g>
	<g>
		<g>
			<polygon class="st0" points="479.1,158 479.1,209.2 442.8,158.1 442.8,158 442.7,158 424.5,158 424.5,210.6 424.5,239.7 
				442.8,239.7 442.8,188.5 479.1,239.7 479.1,239.7 479.1,239.7 483.8,239.7 497.3,239.7 497.3,158 			"/>
			<path class="st0" d="M47.6,174.3c-1.8,1.4-2.6,3.3-2.6,5.7c0,2.4,1.1,4.3,3.2,5.7c2.1,1.4,7.1,3.1,14.8,5
				c7.7,1.9,13.8,4.8,18,8.6c4.3,3.8,6.4,9.4,6.4,16.7c0,7.3-2.7,13.3-8.2,17.8c-5.5,4.6-12.7,6.8-21.7,6.8
				c-12.9,0-24.6-4.8-34.9-14.4l10.9-13.3c8.8,7.7,16.9,11.6,24.4,11.6c3.3,0,6-0.7,7.9-2.2c1.9-1.4,2.9-3.4,2.9-5.8s-1-4.4-3-5.8
				c-2-1.4-6-2.9-12-4.4c-9.5-2.3-16.5-5.2-20.8-8.8c-4.4-3.6-6.6-9.3-6.6-17.1s2.8-13.7,8.4-17.9c5.6-4.2,12.5-6.3,20.8-6.3
				c5.4,0,10.9,0.9,16.4,2.8c5.4,1.9,10.2,4.5,14.2,7.9l-9.2,13.3c-7.1-5.4-14.4-8.1-22-8.1C51.8,172.2,49.4,172.9,47.6,174.3z"/>
			<path class="st0" d="M260.3,158v16.2h-40.6v16.8h36.6v15.5h-36.6v16.9h40.6v16.1h-58.9V158H260.3z"/>
			<path class="st0" d="M306.2,210l18.6-52h19.7l-30.6,81.6h-15.4L267.9,158h19.7L306.2,210z"/>
			<path class="st0" d="M412.2,158v16.2h-40.6v16.8h36.6v15.5h-36.6v16.9h40.6v16.1h-58.9V158H412.2z"/>
			<polygon class="st0" points="175.4,158.4 163.9,204.1 153.2,158.4 133.6,158.4 123.9,203.9 112.4,158.4 91.9,158.4 114.8,239.3 
				132.3,239.3 143.5,193.4 154.5,239.3 172.5,239.3 195.2,158.4 			"/>
		</g>
	</g>
	<path class="st1" d="M363.1,55.3l-15.4-21.9c-11.9,11.6-28.2,18.7-46.1,18.7c-13.3,0-25.7-4-36.1-10.7l-0.1,0
		c-14.5-9.4-31.8-14.9-50.3-14.9c-23.5,0-45,8.8-61.3,23.2l15.3,21.9C181,60.1,197.2,53,215.1,53c13.4,0,25.8,4,36.2,10.8
		c0.3,0.2,0.5,0.3,0.8,0.4c14.3,9.1,31.3,14.4,49.5,14.4C325.2,78.6,346.7,69.8,363.1,55.3z"/>
</g>
</svg>
